<svg version="1.1" xmlns="http://www.w3.org/2000/svg" x="0px" y="0px"
     width="2696" height="800"
     viewBox="0 0 2695.82 800.44" style="enable-background:new 0 0 2695.82 800.44;" xml:space="preserve">
<style type="text/css">
	.st0{fill:#FFFFFF;}
	.st1{fill:#6660EF;}
</style>
  <path class="st0" d="M1430.36,684.76h-229.54l-37.98,106.13h-121.37l207.24-557.77h134.58l207.24,557.77h-122.2L1430.36,684.76z
			 M1398.99,595.39l-83.39-233l-83.39,233H1398.99z" />
  <path class="st0" d="M1973.65,790.89l-127.16-217.04H1792v217.04h-115.59V233.93h216.33c44.58,0,82.56,7.58,113.94,22.74
			c31.38,15.17,54.91,35.65,70.6,61.45c15.69,25.81,23.53,54.65,23.53,86.58c0,36.7-11.02,69.82-33.03,99.34
			c-22.02,29.52-54.77,49.87-98.25,61.04l137.89,225.82H1973.65z M1792,490.07h96.6c31.38,0,54.77-7.31,70.19-21.95
			c15.41-14.62,23.12-34.97,23.12-61.04c0-25.53-7.71-45.34-23.12-59.44c-15.42-14.09-38.81-21.15-70.19-21.15H1792V490.07z" />
  <path class="st0" d="M2539.23,790.89L2329.5,542.73v248.16h-115.59V233.93h115.59v249.75l209.72-249.75h139.54l-237.8,276.09
			l244.4,280.87H2539.23z" />
  <path class="st0"
        d="M498.03,790.89H382.44L120.69,408.67v382.22H5.1V233.12h115.59l261.74,383.02V233.12h115.59V790.89z" />
  <path class="st1" d="M581.62,217.97h140.14l305.57,286.22L721.75,791.65H581.62l305.57-287.46L581.62,217.97z" />
  <path class="st0" d="M1971.77,30.8c4.32-7.82,10.28-13.89,17.88-18.2c7.58-4.31,16.03-6.47,25.34-6.47
			c9.17,0,17.15,1.91,23.91,5.73c6.75,3.82,11.79,8.63,15.1,14.42V7.79h17.6v101.29H2054V90.22c-3.44,5.92-8.58,10.82-15.4,14.69
			c-6.82,3.89-14.75,5.83-23.81,5.83c-9.31,0-17.72-2.22-25.25-6.66c-7.52-4.43-13.45-10.65-17.78-18.67
			c-4.34-8-6.51-17.12-6.51-27.35C1965.26,47.72,1967.43,38.63,1971.77,30.8z M2049.22,38.29c-3.2-5.67-7.49-10.02-12.92-13.03
			c-5.42-3.02-11.37-4.54-17.88-4.54c-6.51,0-12.43,1.48-17.79,4.44c-5.35,2.96-9.62,7.28-12.81,12.94
			c-3.18,5.67-4.78,12.32-4.78,19.96c0,7.76,1.59,14.51,4.78,20.24c3.18,5.73,7.45,10.1,12.81,13.12
			c5.37,3.02,11.28,4.53,17.79,4.53c6.51,0,12.45-1.51,17.88-4.53s9.72-7.39,12.92-13.12c3.18-5.73,4.78-12.41,4.78-20.05
			C2054,50.61,2052.41,43.96,2049.22,38.29z" />
  <path class="st0" d="M2169.98,11.86c6.82,3.82,11.89,8.63,15.22,14.42V7.79h17.58v103.5c0,9.24-2.03,17.47-6.11,24.68
			c-4.09,7.21-9.92,12.84-17.5,16.91c-7.59,4.06-16.41,6.1-26.49,6.1c-13.78,0-25.25-3.14-34.43-9.42
			c-9.19-6.29-14.6-14.86-16.26-25.7h17.22c1.92,6.16,5.86,11.12,11.86,14.88c5.99,3.76,13.19,5.64,21.61,5.64
			c9.55,0,17.37-2.89,23.43-8.68c6.04-5.8,9.09-13.93,9.09-24.4V90.04c-3.45,5.92-8.55,10.85-15.31,14.79
			c-6.75,3.94-14.65,5.91-23.71,5.91c-9.31,0-17.75-2.22-25.34-6.66c-7.58-4.43-13.54-10.65-17.88-18.67
			c-4.34-8-6.51-17.12-6.51-27.35c0-10.35,2.17-19.43,6.51-27.27c4.34-7.82,10.3-13.89,17.88-18.2c7.59-4.31,16.03-6.47,25.34-6.47
			C2155.23,6.13,2163.17,8.04,2169.98,11.86z M2180.41,38.29c-3.18-5.67-7.49-10.02-12.9-13.03c-5.42-3.02-11.38-4.54-17.89-4.54
			c-6.49,0-12.43,1.48-17.78,4.44c-5.35,2.96-9.62,7.28-12.82,12.94c-3.18,5.67-4.78,12.32-4.78,19.96c0,7.76,1.59,14.51,4.78,20.24
			c3.2,5.73,7.47,10.1,12.82,13.12c5.35,3.02,11.28,4.53,17.78,4.53c6.51,0,12.47-1.51,17.89-4.53c5.41-3.02,9.72-7.39,12.9-13.12
			c3.18-5.73,4.79-12.41,4.79-20.05C2185.2,50.61,2183.59,43.96,2180.41,38.29z" />
  <path class="st0" d="M2329.21,64.72h-83.77c0.63,9.97,4.17,17.77,10.61,23.38c6.44,5.61,14.26,8.4,23.43,8.4
			c7.52,0,13.81-1.69,18.85-5.08c5.03-3.39,8.57-7.91,10.61-13.59h18.74c-2.8,9.73-8.41,17.65-16.82,23.75
			c-8.42,6.1-18.88,9.15-31.37,9.15c-9.93,0-18.84-2.15-26.67-6.47c-7.85-4.32-14-10.45-18.46-18.39
			c-4.47-7.95-6.71-17.16-6.71-27.63s2.17-19.65,6.51-27.54s10.43-13.96,18.27-18.21c7.83-4.25,16.85-6.37,27.05-6.37
			c9.95,0,18.75,2.1,26.4,6.28c7.65,4.19,13.54,9.95,17.69,17.29c4.14,7.33,6.21,15.61,6.21,24.85
			C2329.79,57.76,2329.59,61.14,2329.21,64.72z M2307.4,34.5c-2.93-4.62-6.92-8.14-11.95-10.54c-5.04-2.4-10.61-3.61-16.74-3.61
			c-8.79,0-16.29,2.71-22.47,8.13c-6.18,5.42-9.72,12.95-10.61,22.55h66.17C2311.81,44.63,2310.34,39.12,2307.4,34.5z" />
  <path class="st0" d="M2436.69,17.12c7.9,7.46,11.86,18.21,11.86,32.25v59.7h-17.22v-57.3c0-10.11-2.61-17.84-7.83-23.2
			c-5.23-5.36-12.37-8.04-21.43-8.04c-9.17,0-16.48,2.78-21.89,8.32c-5.42,5.54-8.13,13.62-8.13,24.21v56.01h-17.4V7.79h17.4V22.2
			c3.44-5.17,8.13-9.17,14.06-12.01c5.93-2.83,12.45-4.25,19.6-4.25C2418.46,5.95,2428.78,9.67,2436.69,17.12z" />
  <path class="st0" d="M2478.96,30.8c4.32-7.82,10.35-13.89,18.06-18.2c7.72-4.31,16.55-6.47,26.5-6.47
			c12.88,0,23.48,3.01,31.84,9.06c8.35,6.04,13.86,14.41,16.54,25.13h-18.74c-1.79-6.16-5.25-11.03-10.43-14.6
			s-11.57-5.36-19.22-5.36c-9.95,0-17.98,3.3-24.1,9.89c-6.11,6.59-9.17,15.93-9.17,28c0,12.2,3.06,21.63,9.17,28.28
			c6.13,6.65,14.16,9.97,24.1,9.97c7.65,0,14.02-1.72,19.12-5.17s8.61-8.38,10.52-14.79h18.74c-2.8,10.35-8.41,18.64-16.82,24.86
			c-8.42,6.23-18.93,9.33-31.56,9.33c-9.95,0-18.78-2.15-26.5-6.47c-7.71-4.32-13.74-10.41-18.06-18.3
			c-4.34-7.88-6.51-17.12-6.51-27.73C2472.46,47.77,2474.63,38.63,2478.96,30.8z" />
  <path class="st0"
        d="M2687.23,7.79l-63.11,148.97h-17.98l20.65-48.79L2584.53,7.79h19.31l32.9,82.06l32.52-82.06H2687.23z" />
</svg>
