<svg xmlns="http://www.w3.org/2000/svg" viewBox="0 0 290.61 46.51"     width="2000" height="550">
    <path d="M72.45.33H69.11L48,46.15h3.6L70.75,4,89.92,46.15h3.6Z" fill="#243c7a"/>
    <path d="M115.48.33V46.15h29.71v-3H118.82V.33Z" fill="#243c7a"/>
    <path d="M167.47.33V46.15h3.34V.33Z" fill="#243c7a"/>
    <path d="M207.61,43.46a26.15,26.15,0,0,0,21.27,1.38,18.88,18.88,0,0,0,7.2-4.78L234,37.9a19.35,19.35,0,0,1-14.08,5.5,20.87,20.87,0,0,1-10.47-2.62,18.7,18.7,0,0,1-7.4-7.2,19.87,19.87,0,0,1-2.68-10.34A19.63,19.63,0,0,1,202,13a19.29,19.29,0,0,1,7.4-7.27,21.62,21.62,0,0,1,10.47-2.61A19.31,19.31,0,0,1,234,8.51l2.09-2.16A18.76,18.76,0,0,0,229,1.64,26.19,26.19,0,0,0,219.78,0a25.08,25.08,0,0,0-12.17,3,22.56,22.56,0,0,0-8.51,8.31A22.91,22.91,0,0,0,196,23.24a22.73,22.73,0,0,0,3.08,11.91,22.06,22.06,0,0,0,8.51,8.31Z" fill="#243c7a"/>
    <path d="M21.08,46.51h3.33L45.49.69h-3.6L22.78,42.84,3.6.69H0Z" fill="#243c7a"/>
    <path d="M290.61,21.4H261v3h29.65Zm0-21.07H261v3h29.65ZM261,43.13v3h29.65v-3Z" fill="#243c7a"/>
</svg>
